<?xml version="1.0" encoding="UTF-8" standalone="no"?>
<!DOCTYPE svg PUBLIC "-//W3C//DTD SVG 1.1//EN" "http://www.w3.org/Graphics/SVG/1.1/DTD/svg11.dtd">
<svg width="100%" height="100%" viewBox="0 0 380 380" version="1.1" xmlns="http://www.w3.org/2000/svg" xmlns:xlink="http://www.w3.org/1999/xlink" xml:space="preserve" xmlns:serif="http://www.serif.com/" style="fill-rule:evenodd;clip-rule:evenodd;stroke-linejoin:round;stroke-miterlimit:2;">
    <g transform="matrix(1,0,0,1,60.8473,0)">
        <path d="M106.925,116.781C59.488,111.722 11.699,75.865 7.926,0C81.539,0 120.905,43.577 124.707,112.628C138.629,29.802 203.878,39.512 203.878,39.512C206.978,86.453 168.431,114.91 124.707,117.279C112.424,91.395 38.84,27.901 38.84,27.901C38.803,27.87 38.756,27.853 38.707,27.853C38.595,27.853 38.503,27.945 38.503,28.057C38.503,28.084 38.508,28.11 38.518,28.135C38.528,28.16 109.528,89.992 106.925,116.781" style="fill:url(#_Linear1);fill-rule:nonzero;"/>
        <path d="M129.153,380C124.561,379.737 81.715,378.099 79.112,329.959C77.006,300.713 100.111,279.158 100.111,250.76C94.876,179.954 0,188.728 0,250.76C-0.039,266.257 6.101,281.148 17.051,292.114L87.74,362.832C98.706,373.783 113.597,379.922 129.094,379.883" style="fill:rgb(152,2,0);fill-rule:nonzero;"/>
        <path d="M258.305,250.789C258.042,255.381 256.404,298.227 208.265,300.83C179.018,302.935 157.434,279.831 129.065,279.831C58.259,285.066 67.033,379.912 129.065,379.912C144.562,379.952 159.453,373.812 170.42,362.862L241.167,292.173C252.117,281.206 258.257,266.315 258.218,250.818" style="fill:rgb(255,0,0);fill-rule:nonzero;"/>
        <path d="M129.153,121.636C133.745,121.899 176.591,123.537 179.194,171.677C181.299,200.924 158.195,222.478 158.195,250.877C163.43,321.682 258.276,312.908 258.276,250.877C258.315,235.379 252.176,220.488 241.225,209.522L170.507,138.775C159.541,127.824 144.65,121.685 129.153,121.724" style="fill:rgb(152,2,0);fill-rule:nonzero;"/>
        <path d="M0.234,250.789C0.497,246.197 2.135,203.351 50.275,200.748C79.521,198.642 101.105,221.747 129.475,221.747C200.28,216.424 191.506,121.666 129.475,121.666C113.977,121.626 99.086,127.766 88.12,138.716L17.373,209.434C6.422,220.401 0.283,235.292 0.322,250.789" style="fill:rgb(255,0,0);fill-rule:nonzero;"/>
    </g>
    <defs>
        <linearGradient id="_Linear1" x1="0" y1="0" x2="1" y2="0" gradientUnits="userSpaceOnUse" gradientTransform="matrix(196.127,0,0,196.127,7.92599,58.61)"><stop offset="0" style="stop-color:rgb(18,178,18);stop-opacity:1"/><stop offset="1" style="stop-color:rgb(0,255,0);stop-opacity:1"/></linearGradient>
    </defs>
</svg>
